<svg width="60" height="60" viewBox="0 0 60 60" fill="none" xmlns="http://www.w3.org/2000/svg">
<path d="M0 14.5161C0 6.49909 6.49909 0 14.5161 0H45.4839C53.5009 0 60 6.49909 60 14.5161V45.4839C60 53.5009 53.5009 60 45.4839 60H14.5161C6.49909 60 0 53.5009 0 45.4839V14.5161Z" fill="white"/>
<path d="M32.8202 36.1385H23.8658V31.4369H32.8202C34.3796 31.4369 35.6397 31.1849 36.6005 30.6808C37.5613 30.1768 38.2622 29.4837 38.7033 28.6017C39.16 27.7039 39.3884 26.6801 39.3884 25.5302C39.3884 24.4434 39.16 23.4275 38.7033 22.4824C38.2622 21.5216 37.5613 20.7498 36.6005 20.167C35.6397 19.5842 34.3796 19.2928 32.8202 19.2928H25.685V48.9677H19.7548V14.5675H32.8202C35.4822 14.5675 37.7424 15.0401 39.6011 15.9851C41.4754 16.9144 42.9009 18.206 43.8775 19.8599C44.854 21.498 45.3423 23.3724 45.3423 25.483C45.3423 27.7039 44.854 29.6098 43.8775 31.2006C42.9009 32.7915 41.4754 34.0122 39.6011 34.8627C37.7424 35.7133 35.4822 36.1385 32.8202 36.1385Z" fill="#E5E5E5"/>
<path d="M31.0783 33.816H22.1239V29.1143H31.0783C32.6377 29.1143 33.8977 28.8623 34.8586 28.3582C35.8194 27.8542 36.5203 27.1612 36.9613 26.2791C37.4181 25.3813 37.6465 24.3575 37.6465 23.2077C37.6465 22.1208 37.4181 21.1049 36.9613 20.1598C36.5203 19.199 35.8194 18.4272 34.8586 17.8444C33.8977 17.2617 32.6377 16.9703 31.0783 16.9703H23.9431V46.6452H18.0129V12.245H31.0783C33.7402 12.245 36.0005 12.7175 37.8591 13.6625C39.7335 14.5919 41.159 15.8834 42.1355 17.5373C43.1121 19.1754 43.6004 21.0498 43.6004 23.1604C43.6004 25.3813 43.1121 27.2872 42.1355 28.878C41.159 30.4689 39.7335 31.6896 37.8591 32.5401C36.0005 33.3907 33.7402 33.816 31.0783 33.816Z" fill="#A45AFC"/>
</svg>
